<?xml version="1.0" encoding="utf-8" ?>
<svg baseProfile="full" height="200mm" version="1.1" viewBox="0,0,200,200" width="200mm" xmlns="http://www.w3.org/2000/svg" xmlns:ev="http://www.w3.org/2001/xml-events" xmlns:xlink="http://www.w3.org/1999/xlink"><defs /><rect fill="#1a1a1a" height="200" width="200" x="0" y="0" /><text alignment-baseline="middle" fill="#e1ed5e" style="dominant-baseline: central; font-size:9.0px; font-family:Arial;" text-anchor="middle" x="100.0" y="100.0">2026</text><line stroke="#e1ed5e" stroke-width="0.3" x1="100.0" x2="100.0" y1="15.0" y2="10.0" /><path d="M 100.0 14.0 a86.0,86.0 0 0,1 42.46469731375804,11.215312516191453" fill="none" id="id73" stroke="none" /><text fill="#e1ed5e" style="font-size:6.75px; font-family:Arial;" text-anchor="middle"><textPath startOffset="22.20632615414155" xlink:href="#id73">January</textPath></text><path d="M 102.88285421437855 79.19881850522331 l 0.21200243473139832 -1.529699663683125 a22.54432059281883,22.54432059281883 0 0,0 0.3839308742453833,0.0565814307659527 l -0.2383022894054374 1.5258237487562034" fill="#ff0000" stroke="none" /><path d="M 103.2404852339499 79.25152402106235 l 1.0614085375347715 -6.796083905630289 a27.87846963618498,27.87846963618498 0 0,0 0.4734969474653029,0.07813105341017564 l -1.1782346911389496 6.776806589280489" fill="#ff4d07" stroke="none" /><line stroke="#e1ed5e" stroke-width="0.3" x1="143.23703022742887" x2="145.7803849466894" y1="26.81831364943548" y2="22.513508569990506" /><path d="M 143.74570117128098 25.957352633546492 a86.0,86.0 0 0,1 28.547481713284135,27.462654790039103" fill="none" id="id74" stroke="none" /><text fill="#e1ed5e" style="font-size:6.75px; font-family:Arial;" text-anchor="middle"><textPath startOffset="19.985693538727396" xlink:href="#id74">February</textPath></text><path d="M 110.99172775467656 82.1063720568725 l 5.710120670107917 -9.295606392525643 a31.90934353075185,31.90934353075185 0 0,0 0.4655434151522091,0.29152324385927836 l -5.869283237632389 9.19593880734342" fill="#ff840c" stroke="none" /><path d="M 112.48926042617603 83.11751280151076 l 3.9241598781774534 -5.304523778630207 a27.598257593300747,27.598257593300747 0 0,0 0.37948109664916685,0.2858172945279615 l -4.014887128585003 5.236189894596398" fill="#ff4906" stroke="none" /><path d="M 113.06298171725822 83.55741782278167 l 3.3672257618773234 -4.238380447686577 a26.413139398794584,26.413139398794584 0 0,0 0.3535544627734999,0.28588312083136197 l -3.4396836232153145 4.1797912295910855" fill="#ff3805" stroke="none" /><path d="M 114.42810811169701 84.74124197986012 l 4.527933114144055 -4.788613668904386 a27.590371700911884,27.590371700911884 0 0,0 0.34227400681187103,0.32926732336967973 l -4.609690364568345 4.7099632587724045" fill="#ff4906" stroke="none" /><path d="M 115.19652480421416 85.50635884689758 l 6.760917041475822 -6.448204884176653 a30.342876723474298,30.342876723474298 0 0,0 0.3572262224506979,0.3810640272323416 l -6.870910585896983 6.3308714400662565" fill="#ff6f0a" stroke="none" /><path d="M 116.82858285166822 87.43820079747576 l 7.457948400197774 -5.567031466157258 a30.306601618485534,30.306601618485534 0 0,0 0.30845970731073336,0.42073869411784887 l -7.552670720022133 5.437830328367915" fill="#ff6e0a" stroke="none" /><line stroke="#e1ed5e" stroke-width="0.3" x1="172.23445277983987" x2="176.4835382374775" y1="55.19839476539836" y2="52.563006222186495" /><path d="M 173.08426987136738 54.67131705675599 a86.0,86.0 0 0,1 12.851231095245387,41.99856678651699" fill="none" id="id75" stroke="none" /><text fill="#e1ed5e" style="font-size:6.75px; font-family:Arial;" text-anchor="middle"><textPath startOffset="22.20632615414155" xlink:href="#id75">March</textPath></text><path d="M 120.53481517161879 95.60439243477599 l 35.994178291653945 -7.704782394218343 a57.80957134542087,57.80957134542087 0 0,0 0.19991294161698492,0.9748465009605523 l -36.12147052918593 7.084060237094379" fill="#48ff2c" stroke="none" /><line stroke="#e1ed5e" stroke-width="0.3" x1="184.98032266829074" x2="189.97916517819016" y1="98.17113171792111" y2="98.06355123074" /><path d="M 185.9800911702706 98.14961562048488 a86.0,86.0 0 0,1 -9.607161424134198,41.387399972396054" fill="none" id="id76" stroke="none" /><text fill="#e1ed5e" style="font-size:6.75px; font-family:Arial;" text-anchor="middle"><textPath startOffset="21.466115282336823" xlink:href="#id76">April</textPath></text><path d="M 120.95626037817324 101.35467743843564 l 62.86878113451971 4.064032315306923 a84.0,84.0 0 0,0 -0.10569376534264929,1.4421074540129188 l -62.789510810512716 -5.145612905816612" fill="#4dd2ff" stroke="none" /><line stroke="#e1ed5e" stroke-width="0.3" x1="174.80103733775053" x2="179.2010983576182" y1="140.37084112569926" y2="142.7455964860345" /><path d="M 175.68104954172406 140.8457921977663 a86.0,86.0 0 0,1 -30.038265399797805,32.042727171017184" fill="none" id="id77" stroke="none" /><text fill="#e1ed5e" style="font-size:6.75px; font-family:Arial;" text-anchor="middle"><textPath startOffset="22.206326154141568" xlink:href="#id77">May</textPath></text><path d="M 117.55443506779139 111.5257021239791 l 8.623403771793612 5.661861676816462 a31.315995844259884,31.315995844259884 0 0,0 -0.2997341864603334,0.44806194028973584 l -8.524666479922558 -5.809460531312005" fill="#ff7c0b" stroke="none" /><path d="M 117.14729908036423 112.12312394758627 l 13.45054019608178 9.509518974088312 a37.47264346378435,37.47264346378435 0 0,0 -0.37690378726931145,0.5234863955802691 l -13.284856616436866 -9.739638975119712" fill="#ffcd13" stroke="none" /><line stroke="#e1ed5e" stroke-width="0.3" x1="143.8653032363475" x2="146.44561519142675" y1="172.8068346515853" y2="177.08958963109032" /><path d="M 144.38136562736335 173.6633856474863 a86.0,86.0 0 0,1 -40.68145358897372,12.25698825130547" fill="none" id="id78" stroke="none" /><text fill="#e1ed5e" style="font-size:6.75px; font-family:Arial;" text-anchor="middle"><textPath startOffset="21.466115282336833" xlink:href="#id78">June</textPath></text><path d="M 109.2508944713604 118.85261126421891 l 2.868443692817004 5.845667577486386 a27.511512777023263,27.511512777023263 0 0,0 -0.42693588086579143,0.20495516766633343 l -2.7673951439509796 -5.89417702165228" fill="#ff4806" stroke="none" /><path d="M 106.57524785965236 119.94407469862006 l 2.251515911961523 6.829309326700635 a28.190882406323734,28.190882406323734 0 0,0 -0.46216757502612427,0.1479714627523822 l -2.133626991844458 -6.867053636112724" fill="#ff5107" stroke="none" /><line stroke="#e1ed5e" stroke-width="0.3" x1="102.19456741930631" x2="102.32365962044197" y1="184.97166512339345" y2="189.96999836594603" /><path d="M 102.22038585953345 185.97133177190398 a86.0,86.0 0 0,1 -42.740103519485714,-10.115201625700543" fill="none" id="id79" stroke="none" /><text fill="#e1ed5e" style="font-size:6.75px; font-family:Arial;" text-anchor="middle"><textPath startOffset="22.20632615414155" xlink:href="#id79">July</textPath></text><line stroke="#e1ed5e" stroke-width="0.3" x1="58.666819895761336" x2="56.23545636021788" y1="174.27360380694188" y2="178.64263932499728" /><path d="M 58.180547188652646 175.14741091055294 a86.0,86.0 0 0,1 -31.652253787137756,-30.449443065178592" fill="none" id="id80" stroke="none" /><text fill="#e1ed5e" style="font-size:6.75px; font-family:Arial;" text-anchor="middle"><textPath startOffset="22.20632615414155" xlink:href="#id80">August</textPath></text><line stroke="#e1ed5e" stroke-width="0.3" x1="26.63291911575756" x2="22.317208475507996" y1="142.92168965132927" y2="145.44649492493687" /><path d="M 25.769776987707644 143.4266507060508 a86.0,86.0 0 0,1 -11.730757126820373,-40.83630448921669" fill="none" id="id81" stroke="none" /><text fill="#e1ed5e" style="font-size:6.75px; font-family:Arial;" text-anchor="middle"><textPath startOffset="21.46611528233685" xlink:href="#id81">September</textPath></text><line stroke="#e1ed5e" stroke-width="0.3" x1="15.007084014347285" x2="10.007500721073583" y1="101.09737516637583" y2="101.16192664675087" /><path d="M 14.007167355692545 101.11028546245083 a86.0,86.0 0 0,1 10.666146001902534,-42.60595125391555" fill="none" id="id82" stroke="none" /><text fill="#e1ed5e" style="font-size:6.75px; font-family:Arial;" text-anchor="middle"><textPath startOffset="22.20632615414155" xlink:href="#id82">October</textPath></text><line stroke="#e1ed5e" stroke-width="0.3" x1="26.266209847984243" x2="21.928928074336255" y1="57.711370442889674" y2="55.22380399835377" /><path d="M 25.398753493254645 57.213857153982495 a86.0,86.0 0 0,1 29.58750427330803,-30.492523968695096" fill="none" id="id83" stroke="none" /><text fill="#e1ed5e" style="font-size:6.75px; font-family:Arial;" text-anchor="middle"><textPath startOffset="21.46611528233685" xlink:href="#id83">November</textPath></text><line stroke="#e1ed5e" stroke-width="0.3" x1="56.762969772571076" x2="54.21961505331055" y1="26.818313649435495" y2="22.513508569990535" /><path d="M 56.25429882871897 25.957352633546506 a86.0,86.0 0 0,1 42.265352541879196,-11.944610805530505" fill="none" id="id84" stroke="none" /><text fill="#e1ed5e" style="font-size:6.75px; font-family:Arial;" text-anchor="middle"><textPath startOffset="22.20632615414155" xlink:href="#id84">December</textPath></text></svg>