<?xml version="1.0" encoding="utf-8" ?>
<svg baseProfile="full" height="200mm" version="1.1" viewBox="0,0,200,200" width="200mm" xmlns="http://www.w3.org/2000/svg" xmlns:ev="http://www.w3.org/2001/xml-events" xmlns:xlink="http://www.w3.org/1999/xlink"><defs /><rect fill="#1a1a1a" height="200" width="200" x="0" y="0" /><text alignment-baseline="middle" fill="#e1ed5e" style="dominant-baseline: central; font-size:9.0px; font-family:Arial;" text-anchor="middle" x="100.0" y="100.0">2020</text><line stroke="#e1ed5e" stroke-width="0.3" x1="100.0" x2="100.0" y1="15.0" y2="10.0" /><path d="M 100.0 14.0 a86.0,86.0 0 0,1 42.35913384403234,11.155469271406648" fill="none" id="id1" stroke="none" /><text fill="#e1ed5e" style="font-size:6.75px; font-family:Arial;" text-anchor="middle"><textPath startOffset="22.145653131862478" xlink:href="#id1">January</textPath></text><line stroke="#e1ed5e" stroke-width="0.3" x1="143.13028292997686" x2="145.6673583964461" y1="26.7553504044142" y2="22.446841604673864" /><path d="M 143.63769802327073 25.89364864446614 a86.0,86.0 0 0,1 29.32050498858742,28.57503671076993" fill="none" id="id2" stroke="none" /><text fill="#e1ed5e" style="font-size:6.75px; font-family:Arial;" text-anchor="middle"><textPath startOffset="20.669276256404974" xlink:href="#id2">February</textPath></text><line stroke="#e1ed5e" stroke-width="0.3" x1="172.87174338648825" x2="177.1583165268699" y1="56.24261187166439" y2="53.66864786411523" /><path d="M 173.72905801456457 55.72781907015455 a86.0,86.0 0 0,1 12.242430191666344,42.057860355516425" fill="none" id="id3" stroke="none" /><text fill="#e1ed5e" style="font-size:6.75px; font-family:Arial;" text-anchor="middle"><textPath startOffset="22.145653131862474" xlink:href="#id3">March</textPath></text><line stroke="#e1ed5e" stroke-width="0.3" x1="184.99686870605535" x2="189.99668451229388" y1="99.2704041080226" y2="99.22748670261217" /><path d="M 185.99683186730306 99.26182062694052 a86.0,86.0 0 0,1 -10.086455211305974,41.156179273409016" fill="none" id="id4" stroke="none" /><text fill="#e1ed5e" style="font-size:6.75px; font-family:Arial;" text-anchor="middle"><textPath startOffset="21.40746469413373" xlink:href="#id4">April</textPath></text><path d="M 120.9064616781168 101.97986365728391 l 9.321107568335902 0.8827185778404091 a30.36281145747117,30.36281145747117 0 0,0 -0.053594132298034,0.5184746133059599 l -9.304581043556203 -1.0425977134293005" fill="#ff1f03" stroke="none" /><path d="M 120.82617615685814 102.69636545807757 l 9.408088687219179 1.2180654370578978 a30.486612469977707,30.486612469977707 0 0,0 -0.07165149985950985,0.5184345598286725 l -9.38579267080446 -1.3793883050866553" fill="#ff2103" stroke="none" /><path d="M 120.77682067341334 103.0534771498775 l 9.499099491783992 1.3960405058359735 a30.601136404027685,30.601136404027685 0 0,0 -0.08084311364613322,0.5190707825448749 l -9.47373488599959 -1.558899470312299" fill="#ff2203" stroke="none" /><path d="M 120.35273937422433 105.17358676015961 l 9.486893861162049 2.4115313212975296 a30.788597368701666,30.788597368701666 0 0,0 -0.1346055766530769,0.5111192993212197 l -9.444098803704243 -2.5740311249915524" fill="#ff2503" stroke="none" /><path d="M 120.16314734710363 105.8691983318838 l 9.286717478782734 2.7032281120029236 a30.672154039108953,30.672154039108953 0 0,0 -0.15149660430247214,0.5042829241227251 l -9.238944554476632 -2.8622486397163724" fill="#ff2303" stroke="none" /><path d="M 119.16976305983485 108.57439118712176 l 9.676040037996328 4.3279696347351635 a31.59986188476518,31.59986188476518 0 0,0 -0.22573667576901738,0.493275375539054 l -9.600318897372254 -4.493433992488906" fill="#ff3204" stroke="none" /><path d="M 119.0197475246899 108.90220220490707 l 12.022201066170643 5.626997135486182 a34.273899775054964,34.273899775054964 0 0,0 -0.25398712931436473,0.530735414872454 l -11.923834678896366 -5.832545052423739" fill="#ff5c08" stroke="none" /><path d="M 118.8641267826498 109.22738970284198 l 8.880949311979858 4.344117338534623 a30.886486541381252,30.886486541381252 0 0,0 -0.23706126577735676,0.474281332601079 l -8.805068132990769 -4.495930527299448" fill="#ff2703" stroke="none" /><path d="M 118.5362547648365 109.86951160357373 l 10.172600082635558 5.4163365700251385 a32.5246906371073,32.5246906371073 0 0,0 -0.26663222597621267,0.490573264382741 l -10.078122507044005 -5.590164667882482" fill="#ff4106" stroke="none" /><line stroke="#e1ed5e" stroke-width="0.3" x1="174.33088141563837" x2="178.70328620479359" y1="141.23008692659167" y2="143.65538615756765" /><path d="M 175.20536237346943 141.71514677278685 a86.0,86.0 0 0,1 -30.301960400862466,31.631185727798858" fill="none" id="id5" stroke="none" /><text fill="#e1ed5e" style="font-size:6.75px; font-family:Arial;" text-anchor="middle"><textPath startOffset="22.145653131862474" xlink:href="#id5">May</textPath></text><path d="M 118.36410011445183 110.18625677009912 l 8.790172803429098 4.875760678238032 a31.051874457313758,31.051874457313758 0 0,0 -0.2625608027220866,0.46391978031972236 l -8.705178635685634 -5.025937228656876" fill="#ff2a04" stroke="none" /><path d="M 118.00360718960297 110.81064883170644 l 8.5575573173733 5.138567290489897 a30.98181652000386,30.98181652000386 0 0,0 -0.2777033518299761,0.45360755499715366 l -8.468086001087919 -5.284711961611608" fill="#ff2803" stroke="none" /><path d="M 117.62189284568427 111.42229804090321 l 8.336658487976928 5.403721311256244 a30.934791329206803,30.934791329206803 0 0,0 -0.29266604877144764,0.4431336995813214 l -8.242668000284755 -5.546034889176627" fill="#ff2803" stroke="none" /><path d="M 116.79662413953412 112.60449989151573 l 8.233063999214808 6.178244712917861 a31.2933983964415,31.2933983964415 0 0,0 -0.32611896956786685,0.42690019972390264 l -8.125793052292638 -6.318665825882641" fill="#ff2d04" stroke="none" /><path d="M 116.1254893667686 113.45245675266167 l 7.966493025490473 6.645931820006968 a31.3746528077507,31.3746528077507 0 0,0 -0.3485655746726196,0.410609370508675 l -7.851232887310738 -6.7817079729652" fill="#ff2f04" stroke="none" /><path d="M 115.89218393027572 113.72728997021213 l 5.85810284626269 5.060089714464923 a28.74092222385839,28.74092222385839 0 0,0 -0.32571530956690964,0.3706042315524474 l -5.770376472737195 -5.159906223828664" fill="#ff0400" stroke="none" /><path d="M 115.6541949942343 113.99807769240083 l 5.5717351138732365 4.982279895849111 a28.47444614267507,28.47444614267507 0 0,0 -0.3289507667365256,0.3615745163361065 l -5.485386646294831 -5.077191987742888" fill="#ff0000" stroke="none" /><path d="M 115.16444852881244 114.52719865689866 l 7.494019022172639 7.1791007016728585 a31.377851800321928,31.377851800321928 0 0,0 -0.3759562697378526,0.38576425269069603 l -7.369675951283979 -7.306687646431292" fill="#ff2f04" stroke="none" /><path d="M 114.91283532996324 114.78537596483092 l 8.61321363992886 8.539596871688373 a33.128980333812336,33.128980333812336 0 0,0 -0.4038707925386406,0.40041892616491015 l -8.465350927260253 -8.686195808081946" fill="#ff4a06" stroke="none" /><path d="M 114.39649973595853 115.28858382429668 l 6.983147066204797 7.41586019082125 a31.18623214530535,31.18623214530535 0 0,0 -0.3929023128828163,0.36366451511339093 l -6.854814982008013 -7.53464245206702" fill="#ff2c04" stroke="none" /><line stroke="#e1ed5e" stroke-width="0.3" x1="143.1302829299769" x2="145.66735839644613" y1="173.24464959558577" y2="177.55315839532614" /><path d="M 143.63769802327073 174.10635135553383 a86.0,86.0 0 0,1 -40.68552437913181,11.842963189579606" fill="none" id="id6" stroke="none" /><text fill="#e1ed5e" style="font-size:6.75px; font-family:Arial;" text-anchor="middle"><textPath startOffset="21.407464694133747" xlink:href="#id6">June</textPath></text><line stroke="#e1ed5e" stroke-width="0.3" x1="101.45913802915013" x2="101.54496967792366" y1="184.9874750549273" y2="189.98673829345242" /><path d="M 101.47630435890484 185.9873277026323 a86.0,86.0 0 0,1 -42.54439059252881,-10.42667462771756" fill="none" id="id7" stroke="none" /><text fill="#e1ed5e" style="font-size:6.75px; font-family:Arial;" text-anchor="middle"><textPath startOffset="22.145653131862474" xlink:href="#id7">July</textPath></text><path d="M 97.84075906011543 120.88869738790638 l -2.320819179276247 22.451820282058183 a43.571451784073076,43.571451784073076 0 0,0 -0.7433374709221517,-0.08329251407041913 l 2.705892551799198 -22.408672007480792" fill="#ffe415" stroke="none" /><path d="M 95.00130118170881 120.39639698878247 l -14.996096454873564 61.18919096634739 a84.0,84.0 0 0,0 -1.3975788270984852,-0.35525907265894796 l 16.044280575197426 -60.922746661853175" fill="#4dd2ff" stroke="none" /><line stroke="#e1ed5e" stroke-width="0.3" x1="58.13341422392154" x2="55.67067388415222" y1="173.97424548756322" y2="178.32567169271397" /><path d="M 57.64086615596768 174.84453072859336 a86.0,86.0 0 0,1 -31.369924170532247,-30.572349798747897" fill="none" id="id8" stroke="none" /><text fill="#e1ed5e" style="font-size:6.75px; font-family:Arial;" text-anchor="middle"><textPath startOffset="22.145653131862474" xlink:href="#id8">August</textPath></text><line stroke="#e1ed5e" stroke-width="0.3" x1="26.387840678322732" x2="22.057713659400548" y1="142.50000000000003" y2="145.00000000000006" /><path d="M 25.521815274538298 143.00000000000003 a86.0,86.0 0 0,1 -11.493303480769221,-40.785679425670985" fill="none" id="id9" stroke="none" /><text fill="#e1ed5e" style="font-size:6.75px; font-family:Arial;" text-anchor="middle"><textPath startOffset="21.40746469413373" xlink:href="#id9">September</textPath></text><line stroke="#e1ed5e" stroke-width="0.3" x1="15.003131293944662" x2="10.003315487706104" y1="100.72959589197737" y2="100.7725132973878" /><path d="M 14.003168132696942 100.73817937305945 a86.0,86.0 0 0,1 10.791469493833604,-42.45332614584628" fill="none" id="id10" stroke="none" /><text fill="#e1ed5e" style="font-size:6.75px; font-family:Arial;" text-anchor="middle"><textPath startOffset="22.145653131862435" xlink:href="#id10">October</textPath></text><line stroke="#e1ed5e" stroke-width="0.3" x1="26.387840678322718" x2="22.05771365940052" y1="57.49999999999999" y2="54.99999999999999" /><path d="M 25.521815274538284 56.99999999999999 a86.0,86.0 0 0,1 29.574782752854787,-30.34633250058573" fill="none" id="id11" stroke="none" /><text fill="#e1ed5e" style="font-size:6.75px; font-family:Arial;" text-anchor="middle"><textPath startOffset="21.40746469413373" xlink:href="#id11">November</textPath></text><line stroke="#e1ed5e" stroke-width="0.3" x1="56.869717070023135" x2="54.33264160355391" y1="26.7553504044142" y2="22.446841604673864" /><path d="M 56.362301976729285 25.89364864446614 a86.0,86.0 0 0,1 42.16139366436587,-11.88097634709845" fill="none" id="id12" stroke="none" /><text fill="#e1ed5e" style="font-size:6.75px; font-family:Arial;" text-anchor="middle"><textPath startOffset="22.145653131862474" xlink:href="#id12">December</textPath></text></svg>