<?xml version="1.0" encoding="utf-8" ?>
<svg baseProfile="full" height="200mm" version="1.1" viewBox="0,0,200,200" width="200mm" xmlns="http://www.w3.org/2000/svg" xmlns:ev="http://www.w3.org/2001/xml-events" xmlns:xlink="http://www.w3.org/1999/xlink"><defs /><rect fill="#1a1a1a" height="200" width="200" x="0" y="0" /><text alignment-baseline="middle" fill="#e1ed5e" style="dominant-baseline: central; font-size:9.0px; font-family:Arial;" text-anchor="middle" x="100.0" y="100.0">2024</text><line stroke="#e1ed5e" stroke-width="0.3" x1="100.0" x2="100.0" y1="15.0" y2="10.0" /><path d="M 100.0 14.0 a86.0,86.0 0 0,1 42.35913384403234,11.155469271406648" fill="none" id="id49" stroke="none" /><text fill="#e1ed5e" style="font-size:6.75px; font-family:Arial;" text-anchor="middle"><textPath startOffset="22.145653131862478" xlink:href="#id49">January</textPath></text><path d="M 104.9986988182912 79.60360301121754 l 2.9807664695047658 -12.162544384631301 a33.52247797577821,33.52247797577821 0 0,0 0.5577417315573905,0.14177576712981366 l -3.1891134942875508 12.10958338566622" fill="#ff990e" stroke="none" /><line stroke="#e1ed5e" stroke-width="0.3" x1="143.13028292997686" x2="145.6673583964461" y1="26.7553504044142" y2="22.446841604673864" /><path d="M 143.63769802327073 25.89364864446614 a86.0,86.0 0 0,1 29.32050498858742,28.57503671076993" fill="none" id="id50" stroke="none" /><text fill="#e1ed5e" style="font-size:6.75px; font-family:Arial;" text-anchor="middle"><textPath startOffset="20.669276256404974" xlink:href="#id50">February</textPath></text><path d="M 111.8722381534696 82.67804972795209 l 3.263184432649045 -4.761083608683219 a26.772026487322723,26.772026487322723 0 0,0 0.37685440232755696,0.2630736408124527 l -3.3444339261503626 4.704365152065639" fill="#ff3c05" stroke="none" /><path d="M 112.16784306229584 82.88440491214696 l 3.7557126767584723 -5.2828802206449605 a27.481836247240903,27.481836247240903 0 0,0 0.3821532406660645,0.27664947542467627 l -3.8458469277985046 5.21762997384721" fill="#ff4606" stroke="none" /><path d="M 113.59037401385872 83.9905735841838 l 3.619519440220452 -4.263784799427516 a26.592922473444712,26.592922473444712 0 0,0 0.34548071161100535,0.29841801027514564 l -3.6921796315943176 4.201022656687651" fill="#ff3a05" stroke="none" /><path d="M 114.91283532996326 85.21462403516908 l 5.256120703853976 -5.211196865217733 a28.401579400475114,28.401579400475114 0 0,0 0.34029582120584534,0.34917349098280664 l -5.344803326210633 5.120200682167185" fill="#ff5307" stroke="none" /><line stroke="#e1ed5e" stroke-width="0.3" x1="172.87174338648825" x2="177.1583165268699" y1="56.24261187166439" y2="53.66864786411523" /><path d="M 173.72905801456457 55.72781907015455 a86.0,86.0 0 0,1 12.242430191666344,42.057860355516425" fill="none" id="id51" stroke="none" /><text fill="#e1ed5e" style="font-size:6.75px; font-family:Arial;" text-anchor="middle"><textPath startOffset="22.145653131862474" xlink:href="#id51">March</textPath></text><path d="M 118.00360718960297 89.18935116829356 l 7.247824402431837 -4.35211030675076 a29.454100939225448,29.454100939225448 0 0,0 0.256568066965516,0.4357086688444784 l -7.32146617952712 4.227050469612725" fill="#ff6209" stroke="none" /><path d="M 118.8641267826498 90.77261029715802 l 19.42549967308573 -9.501985314308458 a42.62493381405796,42.62493381405796 0 0,0 0.31587256331206376,0.6600521703159082 l -19.585751494357705 9.167120641927445" fill="#f1ff19" stroke="none" /><path d="M 120.16314734710363 94.1308016681162 l 60.48944204131091 -17.607594995651397 a84.0,84.0 0 0,0 0.3911260317016718,1.3879683043879474 l -60.782786565087164 16.56661876736044" fill="#4dd2ff" stroke="none" /><path d="M 120.51834098615036 95.52812308129327 l 22.989350145684885 -5.01042186412381 a44.52901501077747,44.52901501077747 0 0,0 0.1563653096014697,0.7482646113223166 l -23.071973166110723 4.615040801516089" fill="#daff1b" stroke="none" /><path d="M 120.99303781780057 99.45929381324524 l 6.793626910586478 -0.17497973056300636 a27.79587996556389,27.79587996556389 0 0,0 0.00819127164010289,0.4771005074733879 l -6.7956296138252466 0.05833230712055208" fill="#ff4b07" stroke="none" /><line stroke="#e1ed5e" stroke-width="0.3" x1="184.99686870605535" x2="189.99668451229388" y1="99.2704041080226" y2="99.22748670261217" /><path d="M 185.99683186730306 99.26182062694052 a86.0,86.0 0 0,1 -10.086455211305974,41.156179273409016" fill="none" id="id52" stroke="none" /><text fill="#e1ed5e" style="font-size:6.75px; font-family:Arial;" text-anchor="middle"><textPath startOffset="21.40746469413373" xlink:href="#id52">April</textPath></text><path d="M 119.83427380445688 106.89939002012753 l 8.224337628710426 2.860851550054408 a29.707709286745335,29.707709286745335 0 0,0 -0.1716820260677801,0.4802251823260909 l -8.174015432598702 -3.0016116887614204" fill="#ff6509" stroke="none" /><path d="M 119.0197475246899 108.90220220490707 l 3.641525300565349 1.7044177120561586 a25.020664901708212,25.020664901708212 0 0,0 -0.18541592563524847,0.3874479721930465 l -3.6117301169701888 -1.7666781863143084" fill="#ff2303" stroke="none" /><line stroke="#e1ed5e" stroke-width="0.3" x1="174.33088141563837" x2="178.70328620479359" y1="141.23008692659167" y2="143.65538615756765" /><path d="M 175.20536237346943 141.71514677278685 a86.0,86.0 0 0,1 -30.301960400862466,31.631185727798858" fill="none" id="id53" stroke="none" /><text fill="#e1ed5e" style="font-size:6.75px; font-family:Arial;" text-anchor="middle"><textPath startOffset="22.145653131862474" xlink:href="#id53">May</textPath></text><path d="M 117.62189284568427 111.42229804090321 l 2.561618603218804 1.6604102300084782 a24.05267947879784,24.05267947879784 0 0,0 -0.22755617099571832,0.344549046051597 l -2.532737993302359 -1.7041391543991362" fill="#ff1502" stroke="none" /><path d="M 117.01052211995028 112.31430620078461 l 1.8356155730290895 1.328844116236626 a23.266122507104065,23.266122507104065 0 0,0 -0.23697983887546675,0.3215086647304271 l -1.8125337145697946 -1.3601590902359304" fill="#ff0a01" stroke="none" /><path d="M 115.41159269507618 114.26474011684316 l 16.506811466130646 15.278458260664308 a43.49235673737289,43.49235673737289 0 0,0 -0.5118515354620561,0.5435685929935239 l -16.24210409693233 -15.559568313602329" fill="#e7ff1a" stroke="none" /><path d="M 114.39649973595853 115.28858382429668 l 2.8356973461880406 3.0114123135949185 a25.136397413408073,25.136397413408073 0 0,0 -0.31668297200039885,0.29311703108131393 l -2.7835846028736744 -3.0596470908086117" fill="#ff2503" stroke="none" /><path d="M 110.96478420261333 117.91015095944535 l 1.1866231711221655 1.9382597718346737 a23.272647243493065,23.272647243493065 0 0,0 -0.34251490148369396,0.2056703570885023 l -1.153175513081035 -1.9583441294590993" fill="#ff0a01" stroke="none" /><line stroke="#e1ed5e" stroke-width="0.3" x1="143.1302829299769" x2="145.66735839644613" y1="173.24464959558577" y2="177.55315839532614" /><path d="M 143.63769802327073 174.10635135553383 a86.0,86.0 0 0,1 -40.68552437913181,11.842963189579606" fill="none" id="id54" stroke="none" /><text fill="#e1ed5e" style="font-size:6.75px; font-family:Arial;" text-anchor="middle"><textPath startOffset="21.407464694133747" xlink:href="#id54">June</textPath></text><path d="M 110.34350942703117 118.27599006163325 l 14.81095155248122 26.16953223526684 a51.07006324074853,51.07006324074853 0 0,0 -0.7666730594229417,0.4252606222645082 l -14.359534304902184 -26.419925772964493" fill="#90ff24" stroke="none" /><path d="M 110.02825361518725 118.45085714620011 l 0.7683747119104473 1.4137229260677808 a22.60904077312948,22.60904077312948 0 0,0 -0.3425928399213154,0.18241139063965267 l -0.7439930562025782 -1.426704784430002" fill="#ff0000" stroke="none" /><path d="M 109.06512990194946 118.94263497670748 l 1.1426221610709577 2.387640855406739 a23.646963214209425,23.646963214209425 0 0,0 -0.36766668438593814,0.17208657287183107 l -1.1014667628135133 -2.4069036598491036" fill="#ff0f01" stroke="none" /><path d="M 108.4095320186766 119.2426549942271 l 0.8269853082571599 1.892304225341586 a23.065119846720478,23.065119846720478 0 0,0 -0.36417070134108914,0.15544281747404531 l -0.7943795317456397 -1.9062216924750353" fill="#ff0701" stroke="none" /><path d="M 108.07796709384702 119.3841803445677 l 0.958742572239129 2.300633155395463 a23.49240852099502,23.49240852099502 0 0,0 -0.3735802391179981,0.15193183099030322 l -0.91910787193069 -2.3167522429650576" fill="#ff0d01" stroke="none" /><path d="M 107.06938296918513 119.77432235084164 l 0.853767709583649 2.388140234534906 a23.536165034403744,23.536165034403744 0 0,0 -0.3816156353528693,0.13274572752376737 l -0.812646302185758 -2.402444394627264" fill="#ff0e01" stroke="none" /><path d="M 105.69591212413111 120.21278271476187 l 0.9562402971101628 3.393359470329875 a24.52551896898808,24.52551896898808 0 0,0 -0.4062110309115712,0.11071462281516861 l -0.8978478652638965 -3.409274587289185" fill="#ff1c02" stroke="none" /><path d="M 103.2317021107853 120.74984581791261 l 3.592421307803674 23.06592182526268 a44.34399795454693,44.34399795454693 0 0,0 -0.7531614660652874,0.11068879897209065 l -3.195934736130701 -23.124191697533654" fill="#dcff1b" stroke="none" /><path d="M 102.875027216393 120.80226474461374 l 0.33814402335818244 2.446641706762979 a23.469898180452976,23.469898180452976 0 0,0 -0.3995718627370131,0.0517325773386871 l -0.2960943387303939 -2.4520858803020604" fill="#ff0d01" stroke="none" /><path d="M 101.80034050326958 120.92268563240118 l 0.35405954623589425 4.114708616281675 a25.12991345662151,25.12991345662151 0 0,0 -0.4301176216630856,0.03329382417067907 l -0.2833729297975729 -4.120180207447407" fill="#ff2503" stroke="none" /><line stroke="#e1ed5e" stroke-width="0.3" x1="101.45913802915013" x2="101.54496967792366" y1="184.9874750549273" y2="189.98673829345242" /><path d="M 101.47630435890484 185.9873277026323 a86.0,86.0 0 0,1 -42.54439059252881,-10.42667462771756" fill="none" id="id55" stroke="none" /><text fill="#e1ed5e" style="font-size:6.75px; font-family:Arial;" text-anchor="middle"><textPath startOffset="22.145653131862474" xlink:href="#id55">July</textPath></text><path d="M 99.63950707515114 120.99690560180557 l -0.06270363378213563 3.652172313688862 a24.652710548971125,24.652710548971125 0 0,0 -0.42307184066271025,-0.010896829876334157 l 0.1253887885155898 -3.6505577664624806" fill="#ff1e03" stroke="none" /><path d="M 97.84075906011543 120.88869738790638 l -0.27176925512875044 2.629121014176709 a23.64312993158089,23.64312993158089 0 0,0 -0.40335641087014207,-0.045196927158961384 l 0.31686156759969186 -2.624068326510777" fill="#ff0f01" stroke="none" /><path d="M 94.30408787586889 120.21278271476187 l -0.7815016042510801 2.773273493992775 a23.881282809779336,23.881282809779336 0 0,0 -0.39363175886135077,-0.11458046815381895 l 0.8289933754940376 -2.7594493315364397" fill="#ff1302" stroke="none" /><path d="M 90.93487009805054 118.94263497670748 l -7.285045839281575 15.2229439196912 a37.876312229349665,37.876312229349665 0 0,0 -0.5840883576773632,-0.28570688478085915 l 7.545294446221008 -15.09564328481312" fill="#ffd213" stroke="none" /><line stroke="#e1ed5e" stroke-width="0.3" x1="58.13341422392154" x2="55.67067388415222" y1="173.97424548756322" y2="178.32567169271397" /><path d="M 57.64086615596768 174.84453072859336 a86.0,86.0 0 0,1 -31.369924170532247,-30.572349798747897" fill="none" id="id56" stroke="none" /><text fill="#e1ed5e" style="font-size:6.75px; font-family:Arial;" text-anchor="middle"><textPath startOffset="22.145653131862474" xlink:href="#id56">August</textPath></text><path d="M 87.54013794807813 116.9041958592261 l -5.312585991914728 7.207543209714396 a29.953895746622734,29.953895746622734 0 0,0 -0.4112912528103416,-0.3086406237565007 l 5.435530233635836 -7.11528355869388" fill="#ff6909" stroke="none" /><path d="M 84.3458050057657 113.99807769240083 l -2.0152183302748563 1.8020206573846567 a23.703402183974262,23.703402183974262 0 0,0 -0.268626069825029,-0.30564715645338303 l 2.045855464058478 -1.7671612231199736" fill="#ff1001" stroke="none" /><line stroke="#e1ed5e" stroke-width="0.3" x1="26.387840678322732" x2="22.057713659400548" y1="142.50000000000003" y2="145.00000000000006" /><path d="M 25.521815274538298 143.00000000000003 a86.0,86.0 0 0,1 -11.493303480769221,-40.785679425670985" fill="none" id="id57" stroke="none" /><text fill="#e1ed5e" style="font-size:6.75px; font-family:Arial;" text-anchor="middle"><textPath startOffset="21.40746469413373" xlink:href="#id57">September</textPath></text><path d="M 79.2786578344484 103.40968896794605 l -42.56225299331126 7.003602533212586 a64.13462447164522,64.13462447164522 0 0,0 -0.16943301275997283,-1.0878814849613554 l 42.6762074982095 -6.27193286631978" fill="#34ff5d" stroke="none" /><path d="M 79.13060592940153 102.33845913500099 l -4.130124263702079 0.462789038362644 a25.15597162257507,25.15597162257507 0 0,0 -0.044403413468950416,-0.4295627457825871 l 4.137460069652695 -0.3918217702971255" fill="#ff2503" stroke="none" /><line stroke="#e1ed5e" stroke-width="0.3" x1="15.003131293944662" x2="10.003315487706104" y1="100.72959589197737" y2="100.7725132973878" /><path d="M 14.003168132696942 100.73817937305945 a86.0,86.0 0 0,1 10.791469493833604,-42.45332614584628" fill="none" id="id58" stroke="none" /><text fill="#e1ed5e" style="font-size:6.75px; font-family:Arial;" text-anchor="middle"><textPath startOffset="22.145653131862435" xlink:href="#id58">October</textPath></text><path d="M 79.00077361379809 99.81974689727619 l -4.7258148058243465 -0.04056543636329866 a25.725988905358957,25.725988905358957 0 0,0 0.007581287715846322,-0.44157200193726565 l 4.7244220865098345 0.12168435426961667" fill="#ff2d04" stroke="none" /><path d="M 79.56144815229197 95.17655741523228 l -2.7967486251459848 -0.6600250603827619 a23.87357546491983,23.87357546491983 0 0,0 0.09755478864498034,-0.3980568283247728 l 2.7850063099847064 0.7079377133156523" fill="#ff1302" stroke="none" /><line stroke="#e1ed5e" stroke-width="0.3" x1="26.387840678322718" x2="22.05771365940052" y1="57.49999999999999" y2="54.99999999999999" /><path d="M 25.521815274538284 56.99999999999999 a86.0,86.0 0 0,1 29.574782752854787,-30.34633250058573" fill="none" id="id59" stroke="none" /><text fill="#e1ed5e" style="font-size:6.75px; font-family:Arial;" text-anchor="middle"><textPath startOffset="21.40746469413373" xlink:href="#id59">November</textPath></text><line stroke="#e1ed5e" stroke-width="0.3" x1="56.869717070023135" x2="54.33264160355391" y1="26.7553504044142" y2="22.446841604673864" /><path d="M 56.362301976729285 25.89364864446614 a86.0,86.0 0 0,1 42.16139366436587,-11.88097634709845" fill="none" id="id60" stroke="none" /><text fill="#e1ed5e" style="font-size:6.75px; font-family:Arial;" text-anchor="middle"><textPath startOffset="22.145653131862474" xlink:href="#id60">December</textPath></text></svg>