<?xml version="1.0" encoding="utf-8" ?>
<svg baseProfile="full" height="200mm" version="1.1" viewBox="0,0,200,200" width="200mm" xmlns="http://www.w3.org/2000/svg" xmlns:ev="http://www.w3.org/2001/xml-events" xmlns:xlink="http://www.w3.org/1999/xlink"><defs /><rect fill="#1a1a1a" height="200" width="200" x="0" y="0" /><text alignment-baseline="middle" fill="#e1ed5e" style="dominant-baseline: central; font-size:9.0px; font-family:Arial;" text-anchor="middle" x="100.0" y="100.0">2023</text><line stroke="#e1ed5e" stroke-width="0.3" x1="100.0" x2="100.0" y1="15.0" y2="10.0" /><path d="M 100.0 14.0 a86.0,86.0 0 0,1 42.46469731375804,11.215312516191453" fill="none" id="id37" stroke="none" /><text fill="#e1ed5e" style="font-size:6.75px; font-family:Arial;" text-anchor="middle"><textPath startOffset="22.20632615414155" xlink:href="#id37">January</textPath></text><line stroke="#e1ed5e" stroke-width="0.3" x1="143.23703022742887" x2="145.7803849466894" y1="26.81831364943548" y2="22.513508569990506" /><path d="M 143.74570117128098 25.957352633546492 a86.0,86.0 0 0,1 28.547481713284135,27.462654790039103" fill="none" id="id38" stroke="none" /><text fill="#e1ed5e" style="font-size:6.75px; font-family:Arial;" text-anchor="middle"><textPath startOffset="19.985693538727396" xlink:href="#id38">February</textPath></text><line stroke="#e1ed5e" stroke-width="0.3" x1="172.23445277983987" x2="176.4835382374775" y1="55.19839476539836" y2="52.563006222186495" /><path d="M 173.08426987136738 54.67131705675599 a86.0,86.0 0 0,1 12.851231095245387,41.99856678651699" fill="none" id="id39" stroke="none" /><text fill="#e1ed5e" style="font-size:6.75px; font-family:Arial;" text-anchor="middle"><textPath startOffset="22.20632615414155" xlink:href="#id39">March</textPath></text><line stroke="#e1ed5e" stroke-width="0.3" x1="184.98032266829074" x2="189.97916517819016" y1="98.17113171792111" y2="98.06355123074" /><path d="M 185.9800911702706 98.14961562048488 a86.0,86.0 0 0,1 -9.607161424134198,41.387399972396054" fill="none" id="id40" stroke="none" /><text fill="#e1ed5e" style="font-size:6.75px; font-family:Arial;" text-anchor="middle"><textPath startOffset="21.466115282336823" xlink:href="#id40">April</textPath></text><line stroke="#e1ed5e" stroke-width="0.3" x1="174.80103733775053" x2="179.2010983576182" y1="140.37084112569926" y2="142.7455964860345" /><path d="M 175.68104954172406 140.8457921977663 a86.0,86.0 0 0,1 -30.038265399797805,32.042727171017184" fill="none" id="id41" stroke="none" /><text fill="#e1ed5e" style="font-size:6.75px; font-family:Arial;" text-anchor="middle"><textPath startOffset="22.206326154141568" xlink:href="#id41">May</textPath></text><path d="M 114.29624159901734 115.38237550388516 l 0.7498318268876681 0.8067990909403163 a22.101441120421704,22.101441120421704 0 0,0 -0.2808992663081968,0.2565948197152166 l -0.7358330111126075 -0.8195866772421159" fill="#ff0300" stroke="none" /><path d="M 113.75828350139079 115.86535959552629 l 0.7076618484912638 0.8160400021713319 a22.08014192444968,22.08014192444968 0 0,0 -0.28928615835688676,0.246535940080915 l -0.6935102135573298 -0.8281003324751937" fill="#ff0200" stroke="none" /><path d="M 113.48314897796784 116.09983520530334 l 0.7036365226253756 0.8401918629848624 a22.095913647418584,22.095913647418584 0 0,0 -0.2936966445757883,0.24169234372011122 l -0.6890697495048961 -0.8521793255621519" fill="#ff0200" stroke="none" /><path d="M 113.20401910651253 116.32954008644616 l 0.6941671047466937 0.8584832748433777 a22.10402060782316,22.10402060782316 0 0,0 -0.29792273399360036,0.23668783803958238 l -0.6792868780357423 -0.8703050268880861" fill="#ff0300" stroke="none" /><path d="M 112.92097659922987 116.55440617244103 l 0.6572032525615489 0.8420113988443937 a22.0681288831229,22.0681288831229 0 0,0 -0.3014624853557582,0.23114857875095748 l -0.6426120387122969 -0.8531993194227226" fill="#ff0200" stroke="none" /><path d="M 111.1453310114006 117.79835938074945 l 0.5690785119394619 0.9087808931829853 a22.07225606296523,22.07225606296523 0 0,0 -0.3237482843720714,0.19887263858239418 l -0.5533510276350818 -0.9184419985937575" fill="#ff0200" stroke="none" /><line stroke="#e1ed5e" stroke-width="0.3" x1="143.8653032363475" x2="146.44561519142675" y1="172.8068346515853" y2="177.08958963109032" /><path d="M 144.38136562736335 173.6633856474863 a86.0,86.0 0 0,1 -40.68145358897372,12.25698825130547" fill="none" id="id42" stroke="none" /><text fill="#e1ed5e" style="font-size:6.75px; font-family:Arial;" text-anchor="middle"><textPath startOffset="21.466115282336833" xlink:href="#id42">June</textPath></text><path d="M 110.8373102113329 117.98757091392108 l 0.5276022720017758 0.8757046810428604 a22.022361406657065,22.022361406657065 0 0,0 -0.326384115503632,0.19283348842472056 l -0.5124502854697617 -0.8846567417613304" fill="#ff0100" stroke="none" /><path d="M 109.57404056367764 118.69057910512821 l 0.4721158369772196 0.9216712984571862 a22.035553642224514,22.035553642224514 0 0,0 -0.33908109769198885,0.17002230159088239 l -0.45618083160247025 -0.9296614409573707" fill="#ff0200" stroke="none" /><path d="M 107.2578585660854 119.70592522655815 l 0.3899941830114154 1.0588793015514313 a22.12841518867693,22.12841518867693 0 0,0 -0.35856508776050644,0.1285686833361508 l -0.3717095346211742 -1.0654355259275423" fill="#ff0300" stroke="none" /><path d="M 106.91757812671514 119.82793768551818 l 0.33963923906669885 0.9735120506646407 a22.031057964181976,22.031057964181976 0 0,0 -0.35913799793113566,0.12183910797306728 l -0.3228315081983362 -0.9792141455358311" fill="#ff0200" stroke="none" /><path d="M 106.2309692047433 120.05430185196036 l 0.3294139478332413 1.0602149564573067 a22.11021137758665,22.11021137758665 0 0,0 -0.36442368943803555,0.10979786821457194 l -0.31111528395495985 -1.0657281937776042" fill="#ff0300" stroke="none" /><path d="M 101.26447882468166 120.96189622390904 l 0.07760200512344069 1.286447148353271 a22.288785605407448,22.288785605407448 0 0,0 -0.38316750210123685,0.019805383163464564 l -0.055446434608724234 -1.2875923382789374" fill="#ff0500" stroke="none" /><line stroke="#e1ed5e" stroke-width="0.3" x1="102.19456741930631" x2="102.32365962044197" y1="184.97166512339345" y2="189.96999836594603" /><path d="M 102.22038585953345 185.97133177190398 a86.0,86.0 0 0,1 -42.740103519485714,-10.115201625700543" fill="none" id="id43" stroke="none" /><text fill="#e1ed5e" style="font-size:6.75px; font-family:Arial;" text-anchor="middle"><textPath startOffset="22.20632615414155" xlink:href="#id43">July</textPath></text><path d="M 92.40401165467489 119.57807347666478 l -0.5191678948874905 1.3381151643140947 a22.435300489810146,22.435300489810146 0 0,0 -0.3588354565330955,-0.14278803367434506 l 0.542124427462444 -1.328980286233683" fill="#ff0701" stroke="none" /><path d="M 92.06813273071674 119.44442032107085 l -0.35158056579464253 0.8618752767718308 a21.9308264537254,21.9308264537254 0 0,0 -0.34831221614883223,-0.14559453459916954 l 0.3663642414409371 -0.8556956991526882" fill="#ff0000" stroke="none" /><path d="M 91.40352486487194 119.15986991738527 l -0.4434296473862202 0.9883183779261223 a22.083237309331427,22.083237309331427 0 0,0 -0.34547858157992156,-0.1585922721489593 l 0.4603762247335612 -0.9805390354430886" fill="#ff0200" stroke="none" /><path d="M 91.07499286063937 119.00905698771935 l -0.39353428272911034 0.8381747476736269 a21.925962277482654,21.925962277482654 0 0,0 -0.3402568261017218,-0.16334395390209888 l 0.40790377683107426 -0.8312765172719656" fill="#ff0000" stroke="none" /><path d="M 90.7491055286396 118.85261126421891 l -0.9619048949340231 1.960288176833317 a23.183572935152505,23.183572935152505 0 0,0 -0.3567467142831546,-0.17888020848187755 l 0.9955055168999383 -1.9434401274421373" fill="#ff1202" stroke="none" /><path d="M 90.42595943632237 118.69057910512821 l -1.0026959509696223 1.9574773958123495 a23.199344658121408,23.199344658121408 0 0,0 -0.35385529282950634,-0.1851203649744374 l 1.0362421463256244 -1.9399276118931954" fill="#ff1202" stroke="none" /><path d="M 90.10565033884886 118.52300852407294 l -0.46551377969443514 0.8714787737095436 a21.988017374397682,21.988017374397682 0 0,0 -0.3323092917557054,-0.18120152170991466 l 0.4804458833187811 -0.8633366002398631" fill="#ff0100" stroke="none" /><line stroke="#e1ed5e" stroke-width="0.3" x1="58.666819895761336" x2="56.23545636021788" y1="174.27360380694188" y2="178.64263932499728" /><path d="M 58.180547188652646 175.14741091055294 a86.0,86.0 0 0,1 -31.652253787137756,-30.449443065178592" fill="none" id="id44" stroke="none" /><text fill="#e1ed5e" style="font-size:6.75px; font-family:Arial;" text-anchor="middle"><textPath startOffset="22.20632615414155" xlink:href="#id44">August</textPath></text><path d="M 89.7882731507175 118.34994917583269 l -1.0557194413549624 1.8970736662588277 a23.171043996345432,23.171043996345432 0 0,0 -0.3468498215225783,-0.1969503808848063 l 1.088218029798748 -1.8786201195793881" fill="#ff1202" stroke="none" /><path d="M 89.4739219176387 118.17145234162733 l -5.74895928676083 9.924583389552005 a32.46943278183386,32.46943278183386 0 0,0 -0.4812157471995711,-0.2843107455588449 l 5.918942904988783 -9.824154071699411" fill="#ff930d" stroke="none" /><path d="M 89.1626897886671 117.98757091392108 l -4.672657492001889 7.755592149235998 a30.05444297695073,30.05444297695073 0 0,0 -0.4408282653023414,-0.27079272544228244 l 4.8054649572365395 -7.674010956965337" fill="#ff720a" stroke="none" /><path d="M 88.54995079064634 117.60387380957326 l -6.5928722748892294 10.136208975850812 a33.09167884270508,33.09167884270508 0 0,0 -0.47482667126088285,-0.3146892262047026 l 6.766373644890074 -10.02122172855479" fill="#ff9b0e" stroke="none" /><path d="M 87.95078237400918 117.19931262002967 l -1.9252761547519406 2.7481806282625185 a24.355470911453978,24.355470911453978 0 0,0 -0.34129283364820323,-0.24350337492123644 l 1.9722963162490306 -2.7146329914970626" fill="#ff2303" stroke="none" /><path d="M 87.65650970185807 116.9893568818739 l -1.288843594215579 1.773941021393409 a23.192711690517662,23.192711690517662 0 0,0 -0.32095955209588095,-0.23743820358134304 l 1.3191881167300241 -1.7514928690722993" fill="#ff1202" stroke="none" /><path d="M 87.07902340077011 116.55440617244103 l -1.3553088258165713 1.7364270122584162 a23.20273484156332,23.20273484156332 0 0,0 -0.31273144025573313,-0.24845276991424423 l 1.3849977587896625 -1.7128403283390414" fill="#ff1302" stroke="none" /><path d="M 85.70375840098266 115.38237550388516 l -8.090156089550266 8.704792654249719 a32.88377215814773,32.88377215814773 0 0,0 -0.41130421790487415,-0.3889138103439242 l 8.238796141845958 -8.564244207159863" fill="#ff980e" stroke="none" /><path d="M 85.44109423537348 115.13401014063109 l -7.9689656813998795 8.28375493202739 a32.494564359088045,32.494564359088045 0 0,0 -0.39976058331896264,-0.39124986922720706 l 8.110376217094636 -8.145354959877613" fill="#ff930d" stroke="none" /><path d="M 84.9287848128048 114.62390073753433 l -3.7194027239512097 3.6090106578924015 a26.182558687725265,26.182558687725265 0 0,0 -0.311065564796353,-0.32615100106523637 l 3.7809748401265204 -3.544452540244665" fill="#ff3d05" stroke="none" /><path d="M 84.43433777217949 114.09645910891817 l -8.497189689598626 7.695161647929428 a32.46375790955065,32.46375790955065 0 0,0 -0.3715417581294886,-0.41743110394561916 l 8.628390297376452 -7.547756374242945" fill="#ff930d" stroke="none" /><path d="M 83.95833913139862 113.55231037782056 l -10.41957969062181 8.802665704654922 a34.64018197961913,34.64018197961913 0 0,0 -0.3808836468338045,-0.4587988890077052 l 10.569559337349151 -8.622005558533456" fill="#ffaf10" stroke="none" /><path d="M 83.72743513129214 113.27417163493432 l -8.929912171642624 7.284480830629248 a32.52419161438476,32.52419161438476 0 0,0 -0.35014938804323287,-0.43686519951358627 l 9.053979471740718 -7.129687797537402" fill="#ff930d" stroke="none" /><path d="M 83.50135304334701 112.99209946851258 l -1.2282774916320973 0.9672249723353467 a22.56339046420245,22.56339046420245 0 0,0 -0.23766038814897256,-0.30720808862527005 l 1.2447446969991383 -0.9459388895968239" fill="#ff0901" stroke="none" /><path d="M 83.28015986056508 112.70617746262583 l -9.133174119573921 6.940720138026976 a32.471201573194854,32.471201573194854 0 0,0 -0.3343586427179151,-0.44792804202912595 l 9.251294028986921 -6.782479216488542" fill="#ff930d" stroke="none" /><path d="M 83.06392112726016 112.41649034213515 l -9.250640218887735 6.781999883176319 a32.4703908771544,32.4703908771544 0 0,0 -0.32659060489132063,-0.4536057857725258 l 9.366010616154663 -6.621760491952655" fill="#ff930d" stroke="none" /><path d="M 82.85270091963577 112.12312394758628 l -11.411479886592257 8.067905297631704 a34.975441642168356,34.975441642168356 0 0,0 -0.3433240862723958,-0.4945839525957198 l 11.548664880026788 -7.8702800828489705" fill="#ffb310" stroke="none" /><path d="M 82.6465618267979 111.8261652097733 l -16.499754440514792 11.244389727653196 a40.96692757899022,40.96692757899022 0 0,0 -0.39210596305907336,-0.586145213137622 l 16.690863508984595 -10.958707600309753" fill="#fffe18" stroke="none" /><path d="M 82.44556493220864 111.52570212397912 l -2.773319030574927 1.8208759733782072 a24.317662996112638,24.317662996112638 0 0,0 -0.2267276261273731,-0.35188631070990994 l 2.8042515200793456 -1.772868062746849" fill="#ff2303" stroke="none" /><path d="M 82.24976979558568 111.22182372390057 l -2.749058547651978 1.737974666985481 a24.25236511503578,24.25236511503578 0 0,0 -0.22004443457607803,-0.35478169220990846 l 2.7785676218960123 -1.6903966434103082" fill="#ff2203" stroke="none" /><line stroke="#e1ed5e" stroke-width="0.3" x1="26.63291911575756" x2="22.317208475507996" y1="142.92168965132927" y2="145.44649492493687" /><path d="M 25.769776987707644 143.4266507060508 a86.0,86.0 0 0,1 -11.730757126820373,-40.83630448921669" fill="none" id="id45" stroke="none" /><text fill="#e1ed5e" style="font-size:6.75px; font-family:Arial;" text-anchor="middle"><textPath startOffset="21.46611528233685" xlink:href="#id45">September</textPath></text><path d="M 80.87730276802145 108.67885076344099 l -5.283063409059614 2.397722368597069 a26.801709363714743,26.801709363714743 0 0,0 -0.1870490215092158,-0.42174616400375364 l 5.32355351530011 -2.3064278681006196" fill="#ff4606" stroke="none" /><path d="M 80.58989483394504 108.01547362559985 l -4.137942931837218 1.7087786053000422 a25.47688463432695,25.47688463432695 0 0,0 -0.1638981195696999,-0.40678169158503547 l 4.166743665664305 -1.6372975458722014" fill="#ff3304" stroke="none" /><path d="M 80.32549172779594 107.34259656027581 l -3.743220308530299 1.3969831510655641 a24.995404885935184,24.995404885935184 0 0,0 -0.1469679090364034,-0.40439256546288294 l 3.7667124785719266 -1.3323427885965642" fill="#ff2c04" stroke="none" /><path d="M 79.29508885075956 103.50808413554451 l -13.431654134464981 2.2757582702771466 a34.62308366312947,34.62308366312947 0 0,0 -0.09450163877013505,-0.588461794830499 l 13.468837527596408 -2.0442172457534338" fill="#ffaf10" stroke="none" /><path d="M 79.18660465613746 102.79330883721812 l -35.99601441149691 4.830926597947646 a57.31874041465991,57.31874041465991 0 0,0 -0.122821752882447,-0.9790102158736804 l 36.07383767362621 -4.210598627786556" fill="#4bff2c" stroke="none" /><path d="M 79.0095281055655 100.63252640178507 l -34.403957564794055 1.0367280733405293 a55.41957439042793,55.41957439042793 0 0,0 -0.020526189315824506,-0.9537713613941532 l 34.41670581679489 -0.4443668961562472" fill="#5eff2a" stroke="none" /><line stroke="#e1ed5e" stroke-width="0.3" x1="15.007084014347285" x2="10.007500721073583" y1="101.09737516637583" y2="101.16192664675087" /><path d="M 14.007167355692545 101.11028546245083 a86.0,86.0 0 0,1 10.666146001902534,-42.60595125391555" fill="none" id="id46" stroke="none" /><text fill="#e1ed5e" style="font-size:6.75px; font-family:Arial;" text-anchor="middle"><textPath startOffset="22.20632615414155" xlink:href="#id46">October</textPath></text><path d="M 79.00175016825051 100.2711162175752 l -38.99719886695002 0.5035073464479611 a60.00044921685358,60.00044921685358 0 0,0 -0.0044448981656045675,-1.0328377950197276 l 39.00008806240513 0.16783992677544174" fill="#30ff2f" stroke="none" /><path d="M 79.03285615573316 98.82574320788736 l -5.411686049650494 -0.3030793868627433 a26.420166327219384,26.420166327219384 0 0,0 0.029338222110279033,-0.45384931064153283 l 5.405667236535802 0.3961877617572879" fill="#ff4006" stroke="none" /><path d="M 79.12142395522702 97.74499172005258 l -5.529658091441967 -0.597235403158716 a26.561817035379335,26.561817035379335 0 0,0 0.053009351216000304,-0.4541517489534432 l 5.518558387222378 0.6923308904370209" fill="#ff4206" stroke="none" /><path d="M 79.16333360222342 97.38593545837743 l -2.6743794203680706 -0.3355143418898939 a23.69534323560137,23.69534323560137 0 0,0 0.05425556697455268,-0.4042669933237246 l 2.668207854335684 0.3814996772782779" fill="#ff1a02" stroke="none" /><path d="M 79.26566170972629 96.67025291283419 l -4.485376279522164 -0.7203108385950998 a25.542845812164185,25.542845812164185 0 0,0 0.07345166238440773,-0.433515869252993 l 4.4723127556175335 0.7974124961639208" fill="#ff3404" stroke="none" /><path d="M 79.32604984820605 96.31383870115002 l -3.772226029807126 -0.6725871688523429 a24.831717985402793,24.831717985402793 0 0,0 0.07865065456540649,-0.42015494164193007 l 3.760089651331858 0.7374201879568457" fill="#ff2a04" stroke="none" /><path d="M 79.3925641242962 95.95851677861259 l -4.689860430072837 -0.9197647079001663 a25.779200557777592,25.779200557777592 0 0,0 0.08914779501211302,-0.4347163086740495 l 4.673333339145729 1.0003566727376183" fill="#ff3705" stroke="none" /><path d="M 79.46518482838121 95.60439243477599 l -34.55039507538121 -7.395731430041003 a56.333081428743554,56.333081428743554 0 0,0 0.2111299859958759,-0.9464543287895476 l 34.4179707023833 7.98936392838051" fill="#55ff2b" stroke="none" /><path d="M 79.54389044137918 95.25157060432595 l -5.706942061272491 -1.3247392601949861 a26.858679185466897,26.858679185466897 0 0,0 0.1084159534878652,-0.4494541201854967 l 5.683293307523811 1.4227786120398795" fill="#ff4606" stroke="none" /><path d="M 79.62865764111835 94.90015583598534 l -4.716417081758949 -1.1807269106633314 a25.86196525354431,25.86196525354431 0 0,0 0.11182672905068952,-0.4309140040260113 l 4.695394020837952 1.2617373402382066" fill="#ff3805" stroke="none" /><path d="M 79.81627453868168 94.20196356495316 l -3.718266573641221 -1.068120209547305 a24.868641505063632,24.868641505063632 0 0,0 0.12173093778874218,-0.4104162065328748 l 3.6993297387407718 1.131965802826719" fill="#ff2a04" stroke="none" /><path d="M 80.02781315780177 93.51064311812611 l -16.155345235473504 -5.249189866447779 a37.986735234628064,37.986735234628064 0 0,0 0.20741246965607715,-0.6201368843142302 l 16.062595472045658 5.526499853684331" fill="#ffda14" stroke="none" /><path d="M 80.14247586403 93.16781622104843 l -22.00172631434703 -7.569918415031597 a44.26756595825324,44.26756595825324 0 0,0 0.25411041411028473,-0.7184043595661551 l 21.86816281942694 7.947520401024364" fill="#d8ff1c" stroke="none" /><path d="M 80.2630227832202 92.82701384747504 l -5.194267049507796 -1.8877462951601358 a26.526662307079494,26.526662307079494 0 0,0 0.15965944752293704,-0.42780794167827124 l 5.161003013483231 1.9768773738677485" fill="#ff4206" stroke="none" /><path d="M 80.38941819471856 92.48833698450439 l -2.5099918641631884 -0.9614305808179433 a23.687825872317127,23.687825872317127 0 0,0 0.14912777950474673,-0.3795139326950942 l 2.493070534776751 1.0044935184088009" fill="#ff1a02" stroke="none" /><path d="M 80.52162464483688 92.15188598940014 l -4.841492392515182 -1.9507060309236346 a26.219703306306233,26.219703306306233 0 0,0 0.1722738301213555,-0.4171747442764907 l 4.807196875507627 2.0337553456534367" fill="#ff3e05" stroke="none" /><path d="M 80.65960295795068 91.81776055985345 l -2.9362155432845425 -1.2422091734104543 a24.188172728559547,24.188172728559547 0 0,0 0.16552691109637718,-0.3820589326166806 l 2.9143979223454846 1.2925672506137342" fill="#ff2103" stroke="none" /><path d="M 81.10775173730289 90.83032412892265 l -36.86569897944588 -17.893397635987075 a61.9786949548502,61.9786949548502 0 0,0 0.4741074645100722,-0.9557717180226679 l 36.5522315019824 18.525328942508704" fill="#32ff46" stroke="none" /><path d="M 81.6062741919709 89.86733742301443 l -12.165188301529245 -6.701510587435248 a34.888918264759525,34.888918264759525 0 0,0 0.2943002511511952,-0.5235273078934861 l 12.04803040908562 6.9099214052635185" fill="#ffb210" stroke="none" /><line stroke="#e1ed5e" stroke-width="0.3" x1="26.266209847984243" x2="21.928928074336255" y1="57.711370442889674" y2="55.22380399835377" /><path d="M 25.398753493254645 57.213857153982495 a86.0,86.0 0 0,1 29.58750427330803,-30.492523968695096" fill="none" id="id47" stroke="none" /><text fill="#e1ed5e" style="font-size:6.75px; font-family:Arial;" text-anchor="middle"><textPath startOffset="21.46611528233685" xlink:href="#id47">November</textPath></text><path d="M 82.15384107792192 88.93136811851018 l -2.826671938819569 -1.753172280777139 a24.32621215435746,24.32621215435746 0 0,0 0.22376918457561473,-0.35394911171271254 l 2.7960751579979912 1.8015690402040672" fill="#ff2303" stroke="none" /><path d="M 82.34701348167596 88.62581576622439 l -2.876490507530064 -1.853382312697751 a24.42187428713146,24.42187428713146 0 0,0 0.23073247759203688,-0.3514213930180675 l 2.844161394580107 1.9026217696934857" fill="#ff2403" stroke="none" /><path d="M 82.54541684631803 88.32363383020206 l -43.52939089969433 -29.119292212136546 a73.37118531248063,73.37118531248063 0 0,0 0.7112656311669578,-1.0436945481684214 l 43.021700802858625 29.864264783575383" fill="#40ffc5" stroke="none" /><path d="M 82.95767976084542 87.72973835380427 l -6.7815125201520665 -4.882605878279513 a29.3563599864767,29.3563599864767 0 0,0 0.2987881756961352,-0.4075467358646264 l 6.696461731942298 4.99861505781564" fill="#ff6909" stroke="none" /><path d="M 83.17141714833178 87.43820079747576 l -1.295776920895487 -0.9672406544880675 a22.61697010251269,22.61697010251269 0 0,0 0.23556550098340612,-0.3099765866165148 l 1.278935479687972 0.9894020169856089" fill="#ff0a01" stroke="none" /><path d="M 83.39014120810768 87.1503855733568 l -4.835821764993385 -3.7410580002320972 a27.113974738571,27.113974738571 0 0,0 0.28875856234093117,-0.36669405028186136 l 4.7707091220584825 3.8237444444670063" fill="#ff4a06" stroke="none" /><path d="M 83.6137871275137 86.86637796730984 l -2.5266505458998707 -2.0251215785349497 a24.23806738486771,24.23806738486771 0 0,0 0.2637349974569657,-0.323307922505118 l 2.4914170563665126 2.0683136706481497" fill="#ff2103" stroke="none" /><path d="M 84.5562425177563 85.77008943001954 l -8.702780762553472 -8.018760467047334 a32.833803802199526,32.833803802199526 0 0,0 0.3865518687578293,-0.41234658204122737 l 8.563461571825187 8.167376465966612" fill="#ff980e" stroke="none" /><path d="M 84.80347519578584 85.50635884689758 l -2.309448809505917 -2.202630057706095 a24.191415512721377,24.191415512721377 0 0,0 0.2899925617218438,-0.2988628259201947 l 2.271191984080955 2.2420570791764134" fill="#ff2103" stroke="none" /><path d="M 85.31137513191541 84.99185889309783 l -2.239891529840084 -2.2886150640988223 a24.202323059447533,24.202323059447533 0 0,0 0.3002433666900676,-0.2888338808733343 l 2.2001649195375883 2.32683203173447" fill="#ff2103" stroke="none" /><path d="M 85.57189188830299 84.74124197986013 l -2.1810246847999477 -2.3065898622102785 a24.174464595511807,24.174464595511807 0 0,0 0.3048194113510428,-0.28329642243125036 l 2.1409973896540486 2.3437908707161763" fill="#ff2103" stroke="none" /><path d="M 85.83668400450813 84.49514656593479 l -42.48994798647562 -46.514560302195655 a84.0,84.0 0 0,0 1.0759560496161145,-0.9660039649228849 l 41.68298094926353 47.23906327588782" fill="#4dd2ff" stroke="none" /><path d="M 86.37877921826538 84.01681056812374 l -21.7271458954934 -25.494711100150024 a54.49700229638719,54.49700229638719 0 0,0 0.7192111164174173,-0.6023186265951531 l 21.28507724211687 25.86493088413899" fill="#67ff28" stroke="none" /><path d="M 86.65592168130627 83.78471172551755 l -11.040532995055166 -13.416095210409383 a38.37483753908713,38.37483753908713 0 0,0 0.513668400613182,-0.4153507900530437 l 10.807961195877484 13.60415209772656" fill="#ffdf14" stroke="none" /><path d="M 87.22198572758235 83.33499621200491 l -2.320300635346449 -3.026121121245224 a24.813293075392394,24.813293075392394 0 0,0 0.34118732444951727,-0.2569752192203384 l 2.2678671571385416 3.0656129299714165" fill="#ff2a04" stroke="none" /><path d="M 87.80319425747018 82.90503203632743 l -11.062636259482552 -15.505322987163604 a40.0472297709111,40.0472297709111 0 0,0 0.5646065562430935,-0.3955429742762879 l 10.794098563655798 15.693450804203835" fill="#fff316" stroke="none" /><path d="M 88.39885842347998 82.49532879139004 l -8.639896721080182 -13.036523206039748 a36.63965321394771,36.63965321394771 0 0,0 0.5287153851264227,-0.34389119366145926 l 8.414214310169472 13.183313323860743" fill="#ffc912" stroke="none" /><path d="M 88.70189139769569 82.29822771554957 l -2.0534349821639934 -3.2173029782859284 a24.816756958474347,24.816756958474347 0 0,0 0.36206566820521074,-0.22672548821413574 l 1.9977501615865405 3.2521728078229946" fill="#ff2a04" stroke="none" /><line stroke="#e1ed5e" stroke-width="0.3" x1="56.762969772571076" x2="54.21961505331055" y1="26.818313649435495" y2="22.513508569990535" /><path d="M 56.25429882871897 25.957352633546506 a86.0,86.0 0 0,1 42.265352541879196,-11.944610805530505" fill="none" id="id48" stroke="none" /><text fill="#e1ed5e" style="font-size:6.75px; font-family:Arial;" text-anchor="middle"><textPath startOffset="22.20632615414155" xlink:href="#id48">December</textPath></text><path d="M 89.3179101791058 81.91981866633112 l -2.2789856202713064 -3.8573419585681603 a25.480274817768866,25.480274817768866 0 0,0 0.3795387247942724,-0.21985332693041865 l 2.212250163011714 3.8959994428886264" fill="#ff3304" stroke="none" /><path d="M 90.91171255644093 81.06846463323043 l -1.694570992952383 -3.5299093348236648 a24.915588175770132,24.915588175770132 0 0,0 0.38823444425703946,-0.1822812772342317 l 1.633558337395735 3.5585555946979044" fill="#ff2b04" stroke="none" /><path d="M 91.90106846888425 80.62456947434976 l -0.9451300492360197 -2.2610762341083874 a23.450660430663262,23.450660430663262 0 0,0 0.3737768721404043,-0.15247297112441044 l 0.906069307507235 2.2770100914163747" fill="#ff1602" stroke="none" /><path d="M 94.28887869178378 79.79150937346287 l -2.679778288934793 -9.482249020910857 a30.853641873561834,30.853641873561834 0 0,0 0.5123204784022073,-0.1400365397655153 l 2.5161599213088635 9.526972101502666" fill="#ff7d0b" stroke="none" /></svg>