<?xml version="1.0" encoding="utf-8" ?>
<svg baseProfile="full" height="200mm" version="1.1" viewBox="0,0,200,200" width="200mm" xmlns="http://www.w3.org/2000/svg" xmlns:ev="http://www.w3.org/2001/xml-events" xmlns:xlink="http://www.w3.org/1999/xlink"><defs /><rect fill="#1a1a1a" height="200" width="200" x="0" y="0" /><text alignment-baseline="middle" fill="#e1ed5e" style="dominant-baseline: central; font-size:9.0px; font-family:Arial;" text-anchor="middle" x="100.0" y="100.0">2025</text><line stroke="#e1ed5e" stroke-width="0.3" x1="100.0" x2="100.0" y1="15.0" y2="10.0" /><path d="M 100.0 14.0 a86.0,86.0 0 0,1 42.46469731375804,11.215312516191453" fill="none" id="id61" stroke="none" /><text fill="#e1ed5e" style="font-size:6.75px; font-family:Arial;" text-anchor="middle"><textPath startOffset="22.20632615414155" xlink:href="#id61">January</textPath></text><line stroke="#e1ed5e" stroke-width="0.3" x1="143.23703022742887" x2="145.7803849466894" y1="26.81831364943548" y2="22.513508569990506" /><path d="M 143.74570117128098 25.957352633546492 a86.0,86.0 0 0,1 28.547481713284135,27.462654790039103" fill="none" id="id62" stroke="none" /><text fill="#e1ed5e" style="font-size:6.75px; font-family:Arial;" text-anchor="middle"><textPath startOffset="19.985693538727396" xlink:href="#id62">February</textPath></text><line stroke="#e1ed5e" stroke-width="0.3" x1="172.23445277983987" x2="176.4835382374775" y1="55.19839476539836" y2="52.563006222186495" /><path d="M 173.08426987136738 54.67131705675599 a86.0,86.0 0 0,1 12.851231095245387,41.99856678651699" fill="none" id="id63" stroke="none" /><text fill="#e1ed5e" style="font-size:6.75px; font-family:Arial;" text-anchor="middle"><textPath startOffset="22.20632615414155" xlink:href="#id63">March</textPath></text><path d="M 120.08093135843002 93.85539295169968 l 20.831509495109337 -6.37427805442144 a42.78493076784751,42.78493076784751 0 0,0 0.20943040835327675,0.706095223534294 l -20.938145800574315 6.014753444140616" fill="#ffd914" stroke="none" /><path d="M 120.37134235888165 94.90015583598534 l 8.722027709508247 -2.1835076613552924 a29.991188635137565,29.991188635137565 0 0,0 0.12106043225953086,0.5018736479274247 l -8.758320942028597 2.0330487817684615" fill="#ff1802" stroke="none" /><path d="M 120.98425023603335 99.18683210126433 l 12.99510174660203 -0.5035776576374882 a34.00485524186297,34.00485524186297 0 0,0 0.01763120256499827,0.5850937776845997 l -13.001844643622672 0.2798137325278894" fill="#ff5708" stroke="none" /><line stroke="#e1ed5e" stroke-width="0.3" x1="184.98032266829074" x2="189.97916517819016" y1="98.17113171792111" y2="98.06355123074" /><path d="M 185.9800911702706 98.14961562048488 a86.0,86.0 0 0,1 -9.607161424134198,41.387399972396054" fill="none" id="id64" stroke="none" /><text fill="#e1ed5e" style="font-size:6.75px; font-family:Arial;" text-anchor="middle"><textPath startOffset="21.466115282336823" xlink:href="#id64">April</textPath></text><path d="M 120.9904718944345 100.63252640178507 l 44.164092345824336 1.3308397524409454 a65.18413954324761,65.18413954324761 0 0,0 -0.04344947264452441,1.1212378255635753 l -44.134640740328614 -2.090854825018527" fill="#33ff51" stroke="none" /><path d="M 120.9764740272857 100.99374915477107 l 15.38716632905526 0.7289587141256576 a36.40442366480848,36.40442366480848 0 0,0 -0.035041249814388734,0.6256850548160678 l -15.372338728353341 -0.9937154852771487" fill="#ff7c0b" stroke="none" /><path d="M 120.95626037817324 101.35467743843564 l 15.956984315495848 1.031508782940496 a36.99028951627405,36.99028951627405 0 0,0 -0.046543368810592026,0.6350472885418422 l -15.936864388020918 -1.3060292079791085" fill="#ff850c" stroke="none" /><path d="M 120.23288151984713 105.62410040840565 l 17.464441330041957 4.854561695550706 a39.126595935982735,39.126595935982735 0 0,0 -0.1859582079996903,0.6473449174719049 l -17.378290485156167 -5.1544640885271935" fill="#ffa40f" stroke="none" /><path d="M 119.26925614724726 108.34839909993367 l 16.159933030997816 7.001285848298988 a38.61140082718936,38.61140082718936 0 0,0 -0.269468810582805,0.6075810301758255 l -16.03702313568374 -7.2784152149675005" fill="#ff9d0e" stroke="none" /><line stroke="#e1ed5e" stroke-width="0.3" x1="174.80103733775053" x2="179.2010983576182" y1="140.37084112569926" y2="142.7455964860345" /><path d="M 175.68104954172406 140.8457921977663 a86.0,86.0 0 0,1 -30.038265399797805,32.042727171017184" fill="none" id="id65" stroke="none" /><text fill="#e1ed5e" style="font-size:6.75px; font-family:Arial;" text-anchor="middle"><textPath startOffset="22.206326154141568" xlink:href="#id65">May</textPath></text><path d="M 116.498646956653 112.99209946851258 l 14.320414720435835 11.276818818359487 a39.22747707246897,39.22747707246897 0 0,0 -0.4223157105411491,0.5269037829090876 l -14.124181097839832 -11.521650434846824" fill="#ffa60f" stroke="none" /><path d="M 112.63410532772338 116.77436683061366 l 4.519807608957169 6.000971882835201 a28.512677575975545,28.512677575975545 0 0,0 -0.3945815541518129,0.29190200064882954 l -4.415841084386792 -6.0778838322238" fill="#ff0000" stroke="none" /><path d="M 111.45004920935366 117.60387380957326 l 25.16116472929643 38.68402315988148 a67.14691602229814,67.14691602229814 0 0,0 -0.9743279642105134,0.6218622054912569 l -24.491554963038986 -39.111399794196544" fill="#36ff6b" stroke="none" /><line stroke="#e1ed5e" stroke-width="0.3" x1="143.8653032363475" x2="146.44561519142675" y1="172.8068346515853" y2="177.08958963109032" /><path d="M 144.38136562736335 173.6633856474863 a86.0,86.0 0 0,1 -40.68145358897372,12.25698825130547" fill="none" id="id66" stroke="none" /><text fill="#e1ed5e" style="font-size:6.75px; font-family:Arial;" text-anchor="middle"><textPath startOffset="21.466115282336833" xlink:href="#id66">June</textPath></text><path d="M 108.59647513512805 119.15986991738527 l 7.4108813439602 16.517412112696093 a39.103758316849486,39.103758316849486 0 0,0 -0.6164974248518466,0.27025435386579233 l -7.1254632444506 -16.64253101985634" fill="#ffa40f" stroke="none" /><path d="M 101.26447882468166 120.96189622390904 l 1.862811048014945 30.88074795010584 a51.93688185578134,51.93688185578134 0 0,0 -0.8928492399684059,0.04615010721893191 l -1.3309737396330594 -30.908237864086974" fill="#acff21" stroke="none" /><line stroke="#e1ed5e" stroke-width="0.3" x1="102.19456741930631" x2="102.32365962044197" y1="184.97166512339345" y2="189.96999836594603" /><path d="M 102.22038585953345 185.97133177190398 a86.0,86.0 0 0,1 -42.740103519485714,-10.115201625700543" fill="none" id="id67" stroke="none" /><text fill="#e1ed5e" style="font-size:6.75px; font-family:Arial;" text-anchor="middle"><textPath startOffset="22.20632615414155" xlink:href="#id67">July</textPath></text><path d="M 99.81925306533755 120.99922214144158 l -0.17128713157241737 19.900179953684223 a40.90091710124078,40.90091710124078 0 0,0 -0.7039638171784166,-0.012119375522175142 l 0.5138106386435018 -19.894283100882888" fill="#ffbe11" stroke="none" /><path d="M 99.45781275523022 120.99299961872073 l -1.6265617343093406 62.97899885616221 a84.0,84.0 0 0,0 -1.445118593301428,-0.04977280629562486 l 2.7104006792854114 -62.94166925144049" fill="#4dd2ff" stroke="none" /><line stroke="#e1ed5e" stroke-width="0.3" x1="58.666819895761336" x2="56.23545636021788" y1="174.27360380694188" y2="178.64263932499728" /><path d="M 58.180547188652646 175.14741091055294 a86.0,86.0 0 0,1 -31.652253787137756,-30.449443065178592" fill="none" id="id68" stroke="none" /><text fill="#e1ed5e" style="font-size:6.75px; font-family:Arial;" text-anchor="middle"><textPath startOffset="22.20632615414155" xlink:href="#id68">August</textPath></text><line stroke="#e1ed5e" stroke-width="0.3" x1="26.63291911575756" x2="22.317208475507996" y1="142.92168965132927" y2="145.44649492493687" /><path d="M 25.769776987707644 143.4266507060508 a86.0,86.0 0 0,1 -11.730757126820373,-40.83630448921669" fill="none" id="id69" stroke="none" /><text fill="#e1ed5e" style="font-size:6.75px; font-family:Arial;" text-anchor="middle"><textPath startOffset="21.46611528233685" xlink:href="#id69">September</textPath></text><line stroke="#e1ed5e" stroke-width="0.3" x1="15.007084014347285" x2="10.007500721073583" y1="101.09737516637583" y2="101.16192664675087" /><path d="M 14.007167355692545 101.11028546245083 a86.0,86.0 0 0,1 10.666146001902534,-42.60595125391555" fill="none" id="id70" stroke="none" /><text fill="#e1ed5e" style="font-size:6.75px; font-family:Arial;" text-anchor="middle"><textPath startOffset="22.20632615414155" xlink:href="#id70">October</textPath></text><line stroke="#e1ed5e" stroke-width="0.3" x1="26.266209847984243" x2="21.928928074336255" y1="57.711370442889674" y2="55.22380399835377" /><path d="M 25.398753493254645 57.213857153982495 a86.0,86.0 0 0,1 29.58750427330803,-30.492523968695096" fill="none" id="id71" stroke="none" /><text fill="#e1ed5e" style="font-size:6.75px; font-family:Arial;" text-anchor="middle"><textPath startOffset="21.46611528233685" xlink:href="#id71">November</textPath></text><line stroke="#e1ed5e" stroke-width="0.3" x1="56.762969772571076" x2="54.21961505331055" y1="26.818313649435495" y2="22.513508569990535" /><path d="M 56.25429882871897 25.957352633546506 a86.0,86.0 0 0,1 42.265352541879196,-11.944610805530505" fill="none" id="id72" stroke="none" /><text fill="#e1ed5e" style="font-size:6.75px; font-family:Arial;" text-anchor="middle"><textPath startOffset="22.20632615414155" xlink:href="#id72">December</textPath></text></svg>