<?xml version="1.0" encoding="utf-8" ?>
<svg baseProfile="full" height="200mm" version="1.1" viewBox="0,0,200,200" width="200mm" xmlns="http://www.w3.org/2000/svg" xmlns:ev="http://www.w3.org/2001/xml-events" xmlns:xlink="http://www.w3.org/1999/xlink"><defs /><rect fill="#1a1a1a" height="200" width="200" x="0" y="0" /><text alignment-baseline="middle" fill="#e1ed5e" style="dominant-baseline: central; font-size:9.0px; font-family:Arial;" text-anchor="middle" x="100.0" y="100.0">2025</text><line stroke="#e1ed5e" stroke-width="0.3" x1="100.0" x2="100.0" y1="15.0" y2="10.0" /><path d="M 100.0 14.0 a86.0,86.0 0 0,1 42.46469731375804,11.215312516191453" fill="none" id="id61" stroke="none" /><text fill="#e1ed5e" style="font-size:6.75px; font-family:Arial;" text-anchor="middle"><textPath startOffset="22.20632615414155" xlink:href="#id61">January</textPath></text><line stroke="#e1ed5e" stroke-width="0.3" x1="143.23703022742887" x2="145.7803849466894" y1="26.81831364943548" y2="22.513508569990506" /><path d="M 143.74570117128098 25.957352633546492 a86.0,86.0 0 0,1 28.547481713284135,27.462654790039103" fill="none" id="id62" stroke="none" /><text fill="#e1ed5e" style="font-size:6.75px; font-family:Arial;" text-anchor="middle"><textPath startOffset="19.985693538727396" xlink:href="#id62">February</textPath></text><line stroke="#e1ed5e" stroke-width="0.3" x1="172.23445277983987" x2="176.4835382374775" y1="55.19839476539836" y2="52.563006222186495" /><path d="M 173.08426987136738 54.67131705675599 a86.0,86.0 0 0,1 12.851231095245387,41.99856678651699" fill="none" id="id63" stroke="none" /><text fill="#e1ed5e" style="font-size:6.75px; font-family:Arial;" text-anchor="middle"><textPath startOffset="22.20632615414155" xlink:href="#id63">March</textPath></text><path d="M 120.08093135843002 93.85539295169968 l 16.207250520305415 -4.959291180427779 a37.949027654712495,37.949027654712495 0 0,0 0.18575886920235102,0.6262865612698384 l -16.290215286619468 4.679575232411411" fill="#ffc812" stroke="none" /><path d="M 120.37134235888165 94.90015583598534 l 6.785878294908646 -1.6988041931814741 a27.99528983817563,27.99528983817563 0 0,0 0.11300392026042312,0.4684742044338224 l -6.814115015429889 1.5817447570882455" fill="#ff3f05" stroke="none" /><path d="M 120.98425023603335 99.18683210126433 l 10.110398845243749 -0.39179154327128746 a31.117987221937227,31.117987221937227 0 0,0 0.01613438822846596,0.5354217969206353 l -10.115644927927859 0.2176995989256531" fill="#ff6b09" stroke="none" /><line stroke="#e1ed5e" stroke-width="0.3" x1="184.98032266829074" x2="189.97916517819016" y1="98.17113171792111" y2="98.06355123074" /><path d="M 185.9800911702706 98.14961562048488 a86.0,86.0 0 0,1 -9.607161424134198,41.387399972396054" fill="none" id="id64" stroke="none" /><text fill="#e1ed5e" style="font-size:6.75px; font-family:Arial;" text-anchor="middle"><textPath startOffset="21.466115282336823" xlink:href="#id64">April</textPath></text><path d="M 120.9904718944345 100.63252640178507 l 34.360376468096234 1.0354148015656528 a55.37597351116914,55.37597351116914 0 0,0 -0.0369116914497446,0.9525267429039994 l -34.337462643795284 -1.6267187914836585" fill="#67ff28" stroke="none" /><path d="M 120.9764740272857 100.99374915477107 l 11.971463688272578 0.5671416419231612 a32.98489017394954,32.98489017394954 0 0,0 -0.03174976171379041,0.566913323683246 l -11.959927575671259 -0.7731266819418305" fill="#ff850c" stroke="none" /><path d="M 120.95626037817324 101.35467743843564 l 12.414791276193498 0.8025304773490786 a33.44070325980506,33.44070325980506 0 0,0 -0.04207706956232147,0.5741081837904642 l -12.399137647966837 -1.016111797636313" fill="#ff8c0c" stroke="none" /><path d="M 120.23288151984713 105.62410040840565 l 13.587617157538128 3.77692733138425 a35.1027841253556,35.1027841253556 0 0,0 -0.16683411054801103,0.5807714253967253 l -13.520590410104017 -4.010256232285557" fill="#ffa20f" stroke="none" /><path d="M 119.26925614724726 108.34839909993367 l 12.572688651594301 5.44711336133806 a34.70195401762813,34.70195401762813 0 0,0 -0.24218479707280122,0.5460627824799751 l -12.477062769790226 -5.662724480310723" fill="#ff9d0e" stroke="none" /><line stroke="#e1ed5e" stroke-width="0.3" x1="174.80103733775053" x2="179.2010983576182" y1="140.37084112569926" y2="142.7455964860345" /><path d="M 175.68104954172406 140.8457921977663 a86.0,86.0 0 0,1 -30.038265399797805,32.042727171017184" fill="none" id="id65" stroke="none" /><text fill="#e1ed5e" style="font-size:6.75px; font-family:Arial;" text-anchor="middle"><textPath startOffset="22.206326154141568" xlink:href="#id65">May</textPath></text><path d="M 116.498646956653 112.99209946851258 l 11.141513723874045 8.773547001198127 a35.181271277339924,35.181271277339924 0 0,0 -0.37875501271169554,0.4725551146033595 l -10.988840799107496 -8.964029949379736" fill="#ffa30f" stroke="none" /><path d="M 112.63410532772338 116.77436683061366 l 3.516483250488853 4.668852955339258 a26.84498437718603,26.84498437718603 0 0,0 -0.3715026632804332,0.27482878892053925 l -3.4355956167898554 -4.728691692999566" fill="#ff2e04" stroke="none" /><path d="M 111.45004920935366 117.60387380957326 l 19.5757921549621 30.096794216121936 a56.90304528284288,56.90304528284288 0 0,0 -0.8256854007918951,0.5269914887380175 l -19.054824952123276 -30.429300133683764" fill="#57ff2a" stroke="none" /><line stroke="#e1ed5e" stroke-width="0.3" x1="143.8653032363475" x2="146.44561519142675" y1="172.8068346515853" y2="177.08958963109032" /><path d="M 144.38136562736335 173.6633856474863 a86.0,86.0 0 0,1 -40.68145358897372,12.25698825130547" fill="none" id="id66" stroke="none" /><text fill="#e1ed5e" style="font-size:6.75px; font-family:Arial;" text-anchor="middle"><textPath startOffset="21.466115282336833" xlink:href="#id66">June</textPath></text><path d="M 108.59647513512805 119.15986991738527 l 5.765785266114258 12.850813145367203 a35.08501608916663,35.08501608916663 0 0,0 -0.5531392122106258,0.2424799753701166 l -5.5437253792458785 -12.948157674031775" fill="#ffa20f" stroke="none" /><path d="M 101.26447882468166 120.96189622390904 l 1.4492970533056624 24.02572019081358 a45.0693932751947,45.0693932751947 0 0,0 -0.7747899391290748,0.04004778988692626 l -1.035519045763108 -24.04710778746271" fill="#dcff1b" stroke="none" /><line stroke="#e1ed5e" stroke-width="0.3" x1="102.19456741930631" x2="102.32365962044197" y1="184.97166512339345" y2="189.96999836594603" /><path d="M 102.22038585953345 185.97133177190398 a86.0,86.0 0 0,1 -42.740103519485714,-10.115201625700543" fill="none" id="id67" stroke="none" /><text fill="#e1ed5e" style="font-size:6.75px; font-family:Arial;" text-anchor="middle"><textPath startOffset="22.20632615414155" xlink:href="#id67">July</textPath></text><path d="M 99.81925306533755 120.99922214144158 l -0.1332641522185627 15.482661109327704 a36.48323462202117,36.48323462202117 0 0,0 -0.6279291255000898,-0.010810369350727413 l 0.3997529676113204 -15.478073262697817" fill="#ffb510" stroke="none" /><path d="M 99.45781275523022 120.99299961872073 l -1.2654912751705791 48.998677326743184 a70.01501655551928,70.01501655551928 0 0,0 -1.2045238361272406,-0.04148623639050987 l 2.108735462972463 -48.96963429192658" fill="#3bff9d" stroke="none" /><path d="M 99.09653310690486 120.98055641714683 l -2.7104006792854114 62.94166925144049 a84.0,84.0 0 0,0 -1.4440477263460443,-0.07464077295119242 l 3.793436474044945 -62.885688671727095" fill="#4dd2ff" stroke="none" /><path d="M 96.93821686468263 120.77559828337769 l -4.303377900711979 29.200386368151502 a50.51578603740148,50.51578603740148 0 0,0 -0.859163194961211,-0.13418362146941407 l 4.805376959281706 -29.121984439334984" fill="#9dff22" stroke="none" /><path d="M 95.51606077576429 120.51570834832081 l -11.229220580338765 51.37790743460831 a73.59072890920113,73.59072890920113 0 0,0 -1.23520233961836,-0.28112803102357486 l 12.111943069349987 -51.17700267000705" fill="#40ffc4" stroke="none" /><path d="M 91.7346041902142 119.30500536409082 l -5.819548775567132 13.5923823751912 a35.78580422515506,35.78580422515506 0 0,0 -0.5641876152235437,-0.2473232705683409 l 6.052657065448418 -13.490194551328406" fill="#ffab0f" stroke="none" /><line stroke="#e1ed5e" stroke-width="0.3" x1="58.666819895761336" x2="56.23545636021788" y1="174.27360380694188" y2="178.64263932499728" /><path d="M 58.180547188652646 175.14741091055294 a86.0,86.0 0 0,1 -31.652253787137756,-30.449443065178592" fill="none" id="id68" stroke="none" /><text fill="#e1ed5e" style="font-size:6.75px; font-family:Arial;" text-anchor="middle"><textPath startOffset="22.20632615414155" xlink:href="#id68">August</textPath></text><path d="M 87.95078237400918 117.19931262002967 l -11.920056653310963 17.014945467208396 a41.77489157300751,41.77489157300751 0 0,0 -0.5853909034291398,-0.4176608665042141 l 12.21117488458899 -16.807240338859962" fill="#fff917" stroke="none" /><line stroke="#e1ed5e" stroke-width="0.3" x1="26.63291911575756" x2="22.317208475507996" y1="142.92168965132927" y2="145.44649492493687" /><path d="M 25.769776987707644 143.4266507060508 a86.0,86.0 0 0,1 -11.730757126820373,-40.83630448921669" fill="none" id="id69" stroke="none" /><text fill="#e1ed5e" style="font-size:6.75px; font-family:Arial;" text-anchor="middle"><textPath startOffset="21.46611528233685" xlink:href="#id69">September</textPath></text><path d="M 80.20201598880116 107.00284435728193 l -37.821020015131204 13.377862940478787 a61.11728769295341,61.11728769295341 0 0,0 -0.34228349621770954,-0.9948360593617166 l 38.045694342292144 -12.724854178027774" fill="#30ff33" stroke="none" /><path d="M 79.97269907076064 106.31721596034903 l -13.378441428597412 4.219964737931369 a35.02821433568064,35.02821433568064 0 0,0 -0.176430823030094,-0.5765861378814517 l 13.449099024133638 -3.98905162749787" fill="#ffa10e" stroke="none" /><path d="M 79.29508885075956 103.50808413554451 l -8.463162261747074 1.4339344444886966 a29.58378025462855,29.58378025462855 0 0,0 -0.08074716112173312,-0.5028126493842247 l 8.4865911772301 -1.2880425654112582" fill="#ff5607" stroke="none" /><line stroke="#e1ed5e" stroke-width="0.3" x1="15.007084014347285" x2="10.007500721073583" y1="101.09737516637583" y2="101.16192664675087" /><path d="M 14.007167355692545 101.11028546245083 a86.0,86.0 0 0,1 10.666146001902534,-42.60595125391555" fill="none" id="id70" stroke="none" /><text fill="#e1ed5e" style="font-size:6.75px; font-family:Arial;" text-anchor="middle"><textPath startOffset="22.20632615414155" xlink:href="#id70">October</textPath></text><path d="M 79.05617556472873 98.46500227214037 l -10.123153120921016 -0.7419378961762029 a31.1503054609896,31.1503054609896 0 0,0 0.04379661180552652,-0.5344295967771948 l 10.108882025295992 0.9160814101611761" fill="#ff6c09" stroke="none" /><path d="M 79.21141760316559 97.0276538004421 l -11.812434245115 -1.6889388302562507 a32.932565405959984,32.932565405959984 0 0,0 0.08506655177133537,-0.5604822908235991 l 11.781611799904363 1.892020233471942" fill="#ff850c" stroke="none" /><line stroke="#e1ed5e" stroke-width="0.3" x1="26.266209847984243" x2="21.928928074336255" y1="57.711370442889674" y2="55.22380399835377" /><path d="M 25.398753493254645 57.213857153982495 a86.0,86.0 0 0,1 29.58750427330803,-30.492523968695096" fill="none" id="id71" stroke="none" /><text fill="#e1ed5e" style="font-size:6.75px; font-family:Arial;" text-anchor="middle"><textPath startOffset="21.46611528233685" xlink:href="#id71">November</textPath></text><path d="M 84.07557802195018 86.31012108654704 l -8.587566618565114 -7.382544077983824 a32.324674719022525,32.324674719022525 0 0,0 0.3663588376346164,-0.418811482945049 l 8.459215917352655 7.529271117131817" fill="#ff7c0b" stroke="none" /><line stroke="#e1ed5e" stroke-width="0.3" x1="56.762969772571076" x2="54.21961505331055" y1="26.818313649435495" y2="22.513508569990535" /><path d="M 56.25429882871897 25.957352633546506 a86.0,86.0 0 0,1 42.265352541879196,-11.944610805530505" fill="none" id="id72" stroke="none" /><text fill="#e1ed5e" style="font-size:6.75px; font-family:Arial;" text-anchor="middle"><textPath startOffset="22.20632615414155" xlink:href="#id72">December</textPath></text><path d="M 96.75951476605007 79.25152402106235 l -0.4209796208021496 -2.69548691607174 a23.728163036888496,23.728163036888496 0 0,0 0.4040917685446515,-0.05955262251294465 l 0.3745188718288493 2.702334022745654" fill="#ff0000" stroke="none" /></svg>